<svg xmlns="http://www.w3.org/2000/svg" width="1400" height="840" viewBox="0 0 1400 840" fill="none">
  <defs>
    <linearGradient id="bg" x1="0" y1="0" x2="0" y2="840" gradientUnits="userSpaceOnUse">
      <stop stop-color="#f3f6fb"/>
      <stop offset="1" stop-color="#e6ebf3"/>
    </linearGradient>
    <linearGradient id="header" x1="0" y1="0" x2="1400" y2="0" gradientUnits="userSpaceOnUse">
      <stop stop-color="#153f7d"/>
      <stop offset="1" stop-color="#1f5ba8"/>
    </linearGradient>
    <filter id="shadow" x="0" y="0" width="1600" height="1000" filterUnits="userSpaceOnUse" color-interpolation-filters="sRGB">
      <feDropShadow dx="0" dy="8" stdDeviation="8" flood-color="#5a6f94" flood-opacity="0.22"/>
    </filter>
  </defs>
  <rect width="1400" height="840" fill="url(#bg)"/>
  <rect x="0" y="0" width="1400" height="98" fill="url(#header)"/>
  <text x="52" y="63" fill="#f7fbff" font-family="Arial, sans-serif" font-size="44" font-weight="700">AgendaPro</text>
  <text x="330" y="63" fill="#d8e7ff" font-family="Arial, sans-serif" font-size="34">Painel de Agendamentos</text>

  <g filter="url(#shadow)">
    <rect x="26" y="122" width="920" height="690" rx="16" fill="#ffffff"/>
    <rect x="968" y="122" width="406" height="690" rx="16" fill="#ffffff"/>
  </g>

  <rect x="58" y="158" width="856" height="66" rx="12" fill="#eef3fb"/>
  <rect x="86" y="180" width="190" height="22" rx="11" fill="#d7e3f7"/>
  <rect x="716" y="176" width="166" height="30" rx="15" fill="#1e63b5"/>

  <rect x="58" y="252" width="560" height="530" rx="12" fill="#f9fbff" stroke="#d5e0f2"/>
  <rect x="650" y="252" width="264" height="530" rx="12" fill="#f9fbff" stroke="#d5e0f2"/>

  <text x="88" y="296" fill="#1f497f" font-family="Arial, sans-serif" font-size="34" font-weight="700">Calendário</text>
  <rect x="88" y="322" width="500" height="10" rx="5" fill="#d5e2f5"/>

  <rect x="88" y="360" width="66" height="66" rx="10" fill="#dfe9f9"/>
  <rect x="166" y="360" width="66" height="66" rx="10" fill="#dfe9f9"/>
  <rect x="244" y="360" width="66" height="66" rx="10" fill="#2b6fc2"/>
  <rect x="322" y="360" width="66" height="66" rx="10" fill="#dfe9f9"/>
  <rect x="400" y="360" width="66" height="66" rx="10" fill="#dfe9f9"/>
  <rect x="478" y="360" width="66" height="66" rx="10" fill="#dfe9f9"/>

  <rect x="88" y="438" width="66" height="66" rx="10" fill="#dfe9f9"/>
  <rect x="166" y="438" width="66" height="66" rx="10" fill="#dfe9f9"/>
  <rect x="244" y="438" width="66" height="66" rx="10" fill="#dfe9f9"/>
  <rect x="322" y="438" width="66" height="66" rx="10" fill="#dfe9f9"/>
  <rect x="400" y="438" width="66" height="66" rx="10" fill="#dfe9f9"/>
  <rect x="478" y="438" width="66" height="66" rx="10" fill="#dfe9f9"/>

  <rect x="88" y="516" width="66" height="66" rx="10" fill="#dfe9f9"/>
  <rect x="166" y="516" width="66" height="66" rx="10" fill="#dfe9f9"/>
  <rect x="244" y="516" width="66" height="66" rx="10" fill="#dfe9f9"/>
  <rect x="322" y="516" width="66" height="66" rx="10" fill="#dfe9f9"/>
  <rect x="400" y="516" width="66" height="66" rx="10" fill="#dfe9f9"/>
  <rect x="478" y="516" width="66" height="66" rx="10" fill="#dfe9f9"/>

  <text x="680" y="296" fill="#1f497f" font-family="Arial, sans-serif" font-size="34" font-weight="700">Próximos</text>
  <rect x="680" y="322" width="204" height="10" rx="5" fill="#d5e2f5"/>

  <rect x="680" y="360" width="204" height="96" rx="12" fill="#eef3fb"/>
  <rect x="700" y="384" width="98" height="16" rx="8" fill="#1f5ba8"/>
  <rect x="700" y="410" width="170" height="12" rx="6" fill="#9db6da"/>

  <rect x="680" y="472" width="204" height="96" rx="12" fill="#eef3fb"/>
  <rect x="700" y="496" width="112" height="16" rx="8" fill="#1f5ba8"/>
  <rect x="700" y="522" width="160" height="12" rx="6" fill="#9db6da"/>

  <rect x="680" y="584" width="204" height="96" rx="12" fill="#eef3fb"/>
  <rect x="700" y="608" width="104" height="16" rx="8" fill="#1f5ba8"/>
  <rect x="700" y="634" width="146" height="12" rx="6" fill="#9db6da"/>

  <text x="1002" y="178" fill="#1f497f" font-family="Arial, sans-serif" font-size="34" font-weight="700">Resumo</text>
  <rect x="1002" y="204" width="324" height="10" rx="5" fill="#d5e2f5"/>

  <rect x="1002" y="238" width="324" height="120" rx="12" fill="#eef3fb"/>
  <rect x="1030" y="268" width="170" height="14" rx="7" fill="#215ea8"/>
  <rect x="1030" y="294" width="250" height="12" rx="6" fill="#9eb7db"/>

  <rect x="1002" y="376" width="324" height="120" rx="12" fill="#eef3fb"/>
  <rect x="1030" y="406" width="210" height="14" rx="7" fill="#215ea8"/>
  <rect x="1030" y="432" width="260" height="12" rx="6" fill="#9eb7db"/>

  <rect x="1002" y="514" width="324" height="268" rx="12" fill="#eef3fb"/>
  <rect x="1030" y="548" width="54" height="198" rx="8" fill="#205da8"/>
  <rect x="1098" y="586" width="54" height="160" rx="8" fill="#74a4df"/>
  <rect x="1166" y="524" width="54" height="222" rx="8" fill="#205da8"/>
  <rect x="1234" y="612" width="54" height="134" rx="8" fill="#9ab8e2"/>
</svg>
