<svg xmlns="http://www.w3.org/2000/svg" width="1200" height="700" viewBox="0 0 1200 700" fill="none">
  <rect width="1200" height="700" fill="#121212"/>
  <rect x="36" y="30" width="1128" height="64" rx="12" fill="#1E1E1E"/>
  <rect x="70" y="54" width="180" height="16" rx="8" fill="#FF2BD6"/>
  <rect x="930" y="50" width="190" height="24" rx="12" fill="#2A2A2A"/>
  <rect x="36" y="122" width="760" height="542" rx="14" fill="#181818" stroke="#2A2A2A"/>
  <rect x="820" y="122" width="344" height="542" rx="14" fill="#181818" stroke="#2A2A2A"/>
  <rect x="70" y="160" width="220" height="28" rx="8" fill="#2A2A2A"/>
  <rect x="70" y="206" width="690" height="6" rx="3" fill="#2A2A2A"/>
  <rect x="70" y="232" width="690" height="6" rx="3" fill="#2A2A2A"/>
  <rect x="70" y="258" width="690" height="6" rx="3" fill="#2A2A2A"/>
  <rect x="70" y="300" width="690" height="322" rx="12" fill="#141414" stroke="#2A2A2A"/>
  <rect x="98" y="330" width="132" height="36" rx="10" fill="#2A2A2A"/>
  <rect x="248" y="330" width="132" height="36" rx="10" fill="#2A2A2A"/>
  <rect x="398" y="330" width="132" height="36" rx="10" fill="#2A2A2A"/>
  <rect x="548" y="330" width="132" height="36" rx="10" fill="#2A2A2A"/>
  <rect x="98" y="390" width="132" height="44" rx="12" fill="#FF2BD6" fill-opacity="0.25"/>
  <rect x="248" y="390" width="132" height="44" rx="12" fill="#2A2A2A"/>
  <rect x="398" y="390" width="132" height="44" rx="12" fill="#2A2A2A"/>
  <rect x="548" y="390" width="132" height="44" rx="12" fill="#2A2A2A"/>
  <rect x="98" y="450" width="132" height="44" rx="12" fill="#2A2A2A"/>
  <rect x="248" y="450" width="132" height="44" rx="12" fill="#2A2A2A"/>
  <rect x="398" y="450" width="132" height="44" rx="12" fill="#2A2A2A"/>
  <rect x="548" y="450" width="132" height="44" rx="12" fill="#2A2A2A"/>
  <rect x="854" y="160" width="220" height="18" rx="9" fill="#2A2A2A"/>
  <rect x="854" y="204" width="278" height="120" rx="12" fill="#141414" stroke="#2A2A2A"/>
  <rect x="876" y="230" width="150" height="10" rx="5" fill="#FF77E9"/>
  <rect x="876" y="252" width="220" height="10" rx="5" fill="#2A2A2A"/>
  <rect x="876" y="274" width="190" height="10" rx="5" fill="#2A2A2A"/>
  <rect x="854" y="344" width="278" height="120" rx="12" fill="#141414" stroke="#2A2A2A"/>
  <rect x="876" y="370" width="180" height="10" rx="5" fill="#FF2BD6"/>
  <rect x="876" y="392" width="220" height="10" rx="5" fill="#2A2A2A"/>
  <rect x="876" y="414" width="200" height="10" rx="5" fill="#2A2A2A"/>
  <rect x="854" y="486" width="278" height="146" rx="12" fill="#141414" stroke="#2A2A2A"/>
  <rect x="876" y="512" width="80" height="80" rx="10" fill="#FF2BD6" fill-opacity="0.2"/>
  <rect x="970" y="512" width="140" height="12" rx="6" fill="#2A2A2A"/>
  <rect x="970" y="536" width="110" height="12" rx="6" fill="#2A2A2A"/>
  <rect x="970" y="560" width="130" height="12" rx="6" fill="#2A2A2A"/>
</svg>
