<svg xmlns="http://www.w3.org/2000/svg" width="1200" height="700" viewBox="0 0 1200 700" fill="none">
  <rect width="1200" height="700" fill="#121212"/>
  <rect x="36" y="30" width="1128" height="64" rx="12" fill="#1E1E1E"/>
  <rect x="70" y="54" width="190" height="16" rx="8" fill="#FF2BD6"/>
  <rect x="930" y="50" width="190" height="24" rx="12" fill="#2A2A2A"/>
  <rect x="36" y="122" width="1128" height="542" rx="14" fill="#181818" stroke="#2A2A2A"/>
  <rect x="66" y="154" width="1068" height="384" rx="12" fill="#111111" stroke="#2A2A2A"/>
  <rect x="94" y="188" width="440" height="74" rx="12" fill="#1A1A1A" stroke="#2A2A2A"/>
  <rect x="118" y="214" width="350" height="12" rx="6" fill="#2A2A2A"/>
  <rect x="118" y="236" width="290" height="12" rx="6" fill="#2A2A2A"/>
  <rect x="666" y="284" width="440" height="74" rx="12" fill="#FF2BD6" fill-opacity="0.2" stroke="#803574"/>
  <rect x="690" y="310" width="350" height="12" rx="6" fill="#FF77E9"/>
  <rect x="690" y="332" width="260" height="12" rx="6" fill="#C96AC5"/>
  <rect x="94" y="380" width="440" height="74" rx="12" fill="#1A1A1A" stroke="#2A2A2A"/>
  <rect x="118" y="406" width="310" height="12" rx="6" fill="#2A2A2A"/>
  <rect x="118" y="428" width="250" height="12" rx="6" fill="#2A2A2A"/>
  <rect x="66" y="558" width="1068" height="76" rx="12" fill="#111111" stroke="#2A2A2A"/>
  <rect x="94" y="584" width="760" height="24" rx="10" fill="#1A1A1A" stroke="#2A2A2A"/>
  <rect x="874" y="584" width="232" height="24" rx="10" fill="#FF2BD6"/>
  <circle cx="1096" cy="198" r="10" fill="#FF2BD6"/>
  <circle cx="1066" cy="198" r="10" fill="#FF77E9"/>
</svg>
