<svg xmlns="http://www.w3.org/2000/svg" width="1400" height="840" viewBox="0 0 1400 840" fill="none">
  <defs>
    <linearGradient id="bg3" x1="0" y1="0" x2="0" y2="840" gradientUnits="userSpaceOnUse">
      <stop stop-color="#f2f6fc"/>
      <stop offset="1" stop-color="#e5ecf6"/>
    </linearGradient>
    <linearGradient id="head3" x1="0" y1="0" x2="1400" y2="0" gradientUnits="userSpaceOnUse">
      <stop stop-color="#1a3f76"/>
      <stop offset="1" stop-color="#2865b6"/>
    </linearGradient>
  </defs>
  <rect width="1400" height="840" fill="url(#bg3)"/>
  <rect width="1400" height="98" fill="url(#head3)"/>
  <text x="52" y="62" fill="#f5f9ff" font-family="Arial, sans-serif" font-size="48" font-weight="700">FlowAI</text>
  <text x="250" y="62" fill="#d8e6ff" font-family="Arial, sans-serif" font-size="36">Central de Atendimento</text>

  <rect x="22" y="122" width="376" height="694" rx="16" fill="#ffffff" stroke="#c8d6ec"/>
  <rect x="418" y="122" width="960" height="694" rx="16" fill="#ffffff" stroke="#c8d6ec"/>

  <text x="58" y="174" fill="#1f4a81" font-family="Arial, sans-serif" font-size="34" font-weight="700">Conversas</text>
  <rect x="58" y="192" width="304" height="8" rx="4" fill="#d7e3f5"/>

  <rect x="58" y="222" width="304" height="92" rx="12" fill="#edf3fc"/>
  <rect x="78" y="252" width="150" height="14" rx="7" fill="#2360af"/>
  <rect x="78" y="276" width="240" height="12" rx="6" fill="#9cb6dc"/>

  <rect x="58" y="330" width="304" height="92" rx="12" fill="#edf3fc"/>
  <rect x="78" y="360" width="172" height="14" rx="7" fill="#2360af"/>
  <rect x="78" y="384" width="220" height="12" rx="6" fill="#9cb6dc"/>

  <rect x="58" y="438" width="304" height="92" rx="12" fill="#edf3fc"/>
  <rect x="78" y="468" width="140" height="14" rx="7" fill="#2360af"/>
  <rect x="78" y="492" width="248" height="12" rx="6" fill="#9cb6dc"/>

  <rect x="58" y="546" width="304" height="240" rx="12" fill="#edf3fc"/>
  <rect x="78" y="578" width="260" height="14" rx="7" fill="#2360af"/>
  <rect x="78" y="606" width="220" height="12" rx="6" fill="#9cb6dc"/>
  <rect x="78" y="626" width="240" height="12" rx="6" fill="#9cb6dc"/>

  <text x="454" y="174" fill="#1f4a81" font-family="Arial, sans-serif" font-size="34" font-weight="700">Chat Ativo</text>
  <rect x="454" y="192" width="888" height="8" rx="4" fill="#d7e3f5"/>

  <rect x="454" y="228" width="888" height="470" rx="12" fill="#f7faff" stroke="#d3dff2"/>

  <rect x="482" y="258" width="430" height="74" rx="12" fill="#edf3fc"/>
  <rect x="506" y="286" width="320" height="12" rx="6" fill="#9cb6dc"/>
  <rect x="506" y="306" width="260" height="12" rx="6" fill="#9cb6dc"/>

  <rect x="884" y="354" width="430" height="74" rx="12" fill="#2a66b7"/>
  <rect x="908" y="382" width="320" height="12" rx="6" fill="#d7e7ff"/>
  <rect x="908" y="402" width="270" height="12" rx="6" fill="#d7e7ff"/>

  <rect x="482" y="450" width="430" height="74" rx="12" fill="#edf3fc"/>
  <rect x="506" y="478" width="300" height="12" rx="6" fill="#9cb6dc"/>
  <rect x="506" y="498" width="230" height="12" rx="6" fill="#9cb6dc"/>

  <rect x="884" y="546" width="430" height="74" rx="12" fill="#2a66b7"/>
  <rect x="908" y="574" width="330" height="12" rx="6" fill="#d7e7ff"/>
  <rect x="908" y="594" width="250" height="12" rx="6" fill="#d7e7ff"/>

  <rect x="454" y="722" width="888" height="64" rx="12" fill="#eef4fd"/>
  <rect x="482" y="742" width="660" height="24" rx="10" fill="#ffffff" stroke="#cad9ef"/>
  <rect x="1160" y="742" width="154" height="24" rx="10" fill="#2a66b7"/>
</svg>
