<svg xmlns="http://www.w3.org/2000/svg" width="1400" height="840" viewBox="0 0 1400 840" fill="none">
  <defs>
    <linearGradient id="bg2" x1="0" y1="0" x2="0" y2="840" gradientUnits="userSpaceOnUse">
      <stop stop-color="#eff4fb"/>
      <stop offset="1" stop-color="#e2e8f2"/>
    </linearGradient>
    <linearGradient id="head2" x1="0" y1="0" x2="1400" y2="0" gradientUnits="userSpaceOnUse">
      <stop stop-color="#173d75"/>
      <stop offset="1" stop-color="#215fae"/>
    </linearGradient>
  </defs>
  <rect width="1400" height="840" fill="url(#bg2)"/>
  <rect width="1400" height="98" fill="url(#head2)"/>
  <text x="48" y="62" fill="#f5f9ff" font-family="Arial, sans-serif" font-size="48" font-weight="700">SalesBoard</text>
  <text x="332" y="62" fill="#d6e5ff" font-family="Arial, sans-serif" font-size="36">Dashboard Comercial</text>

  <rect x="20" y="120" width="1360" height="78" rx="14" fill="#ffffff" stroke="#c7d5eb"/>
  <rect x="48" y="140" width="250" height="38" rx="12" fill="#e6eef9"/>
  <rect x="1000" y="136" width="320" height="46" rx="12" fill="#f4f7fc" stroke="#c7d5eb"/>

  <rect x="20" y="218" width="860" height="330" rx="14" fill="#ffffff" stroke="#c7d5eb"/>
  <rect x="896" y="218" width="484" height="330" rx="14" fill="#ffffff" stroke="#c7d5eb"/>

  <text x="58" y="270" fill="#1f487c" font-family="Arial, sans-serif" font-size="44" font-weight="700">Vendas Mensais</text>
  <rect x="58" y="286" width="780" height="8" rx="4" fill="#d7e3f5"/>

  <rect x="94" y="454" width="54" height="58" rx="7" fill="#2b69b7"/>
  <rect x="160" y="428" width="54" height="84" rx="7" fill="#6d99d1"/>
  <rect x="226" y="390" width="54" height="122" rx="7" fill="#2b69b7"/>
  <rect x="292" y="440" width="54" height="72" rx="7" fill="#9bb8de"/>
  <rect x="358" y="372" width="54" height="140" rx="7" fill="#2b69b7"/>
  <rect x="424" y="406" width="54" height="106" rx="7" fill="#6d99d1"/>
  <rect x="490" y="346" width="54" height="166" rx="7" fill="#2b69b7"/>
  <rect x="556" y="382" width="54" height="130" rx="7" fill="#9bb8de"/>
  <rect x="622" y="420" width="54" height="92" rx="7" fill="#2b69b7"/>
  <rect x="688" y="364" width="54" height="148" rx="7" fill="#6d99d1"/>
  <rect x="754" y="334" width="54" height="178" rx="7" fill="#2b69b7"/>

  <path d="M100 486C178 446 240 398 320 418C394 436 456 326 550 356C618 378 692 292 782 324" stroke="#d43d3d" stroke-width="8" stroke-linecap="round"/>

  <text x="930" y="268" fill="#1f487c" font-family="Arial, sans-serif" font-size="44" font-weight="700">Taxa de Conversão</text>
  <rect x="930" y="286" width="410" height="8" rx="4" fill="#d7e3f5"/>

  <circle cx="1138" cy="390" r="122" fill="#e9eef7"/>
  <path d="M1138 390L1138 268A122 122 0 0 1 1248 339L1138 390Z" fill="#2c6dbb"/>
  <path d="M1138 390L1248 339A122 122 0 0 1 1196 501L1138 390Z" fill="#f2ad42"/>
  <path d="M1138 390L1196 501A122 122 0 0 1 1025 486L1138 390Z" fill="#2f9547"/>
  <path d="M1138 390L1025 486A122 122 0 0 1 1036 317L1138 390Z" fill="#d14a4a"/>

  <rect x="20" y="566" width="620" height="250" rx="14" fill="#ffffff" stroke="#c7d5eb"/>
  <rect x="656" y="566" width="724" height="250" rx="14" fill="#ffffff" stroke="#c7d5eb"/>

  <text x="58" y="624" fill="#1f487c" font-family="Arial, sans-serif" font-size="42" font-weight="700">Funil de Vendas</text>
  <rect x="58" y="640" width="540" height="8" rx="4" fill="#d7e3f5"/>

  <polygon points="360,684 560,684 530,738 390,738" fill="#2b69b7"/>
  <polygon points="390,744 530,744 510,786 410,786" fill="#f0a53f"/>
  <polygon points="410,792 510,792 494,824 426,824" fill="#2f9547"/>

  <rect x="696" y="632" width="648" height="138" rx="14" fill="#1e5dad"/>
  <text x="736" y="690" fill="#e5f0ff" font-family="Arial, sans-serif" font-size="56" font-weight="700">Ticket Médio</text>
  <text x="736" y="760" fill="#ffffff" font-family="Arial, sans-serif" font-size="78" font-weight="700">R$ 30.350</text>
</svg>
