<svg xmlns="http://www.w3.org/2000/svg" width="1200" height="700" viewBox="0 0 1200 700" fill="none">
  <rect width="1200" height="700" fill="#121212"/>
  <rect x="36" y="30" width="1128" height="64" rx="12" fill="#1E1E1E"/>
  <rect x="70" y="54" width="200" height="16" rx="8" fill="#FF2BD6"/>
  <rect x="930" y="50" width="190" height="24" rx="12" fill="#2A2A2A"/>
  <rect x="36" y="122" width="1128" height="160" rx="14" fill="#181818" stroke="#2A2A2A"/>
  <rect x="64" y="150" width="250" height="32" rx="10" fill="#2A2A2A"/>
  <rect x="338" y="150" width="250" height="32" rx="10" fill="#2A2A2A"/>
  <rect x="612" y="150" width="250" height="32" rx="10" fill="#2A2A2A"/>
  <rect x="886" y="150" width="250" height="32" rx="10" fill="#2A2A2A"/>
  <rect x="64" y="208" width="220" height="44" rx="12" fill="#141414" stroke="#2A2A2A"/>
  <rect x="92" y="224" width="130" height="12" rx="6" fill="#FF2BD6"/>
  <rect x="338" y="208" width="220" height="44" rx="12" fill="#141414" stroke="#2A2A2A"/>
  <rect x="366" y="224" width="140" height="12" rx="6" fill="#FF77E9"/>
  <rect x="612" y="208" width="220" height="44" rx="12" fill="#141414" stroke="#2A2A2A"/>
  <rect x="640" y="224" width="120" height="12" rx="6" fill="#FF2BD6"/>
  <rect x="886" y="208" width="220" height="44" rx="12" fill="#141414" stroke="#2A2A2A"/>
  <rect x="914" y="224" width="145" height="12" rx="6" fill="#FF77E9"/>
  <rect x="36" y="306" width="740" height="358" rx="14" fill="#181818" stroke="#2A2A2A"/>
  <rect x="804" y="306" width="360" height="358" rx="14" fill="#181818" stroke="#2A2A2A"/>
  <rect x="70" y="340" width="220" height="18" rx="9" fill="#2A2A2A"/>
  <rect x="70" y="396" width="84" height="230" rx="12" fill="#2A2A2A"/>
  <rect x="166" y="450" width="84" height="176" rx="12" fill="#FF2BD6" fill-opacity="0.55"/>
  <rect x="262" y="420" width="84" height="206" rx="12" fill="#2A2A2A"/>
  <rect x="358" y="360" width="84" height="266" rx="12" fill="#FF77E9" fill-opacity="0.65"/>
  <rect x="454" y="480" width="84" height="146" rx="12" fill="#2A2A2A"/>
  <rect x="550" y="410" width="84" height="216" rx="12" fill="#FF2BD6" fill-opacity="0.45"/>
  <rect x="646" y="370" width="84" height="256" rx="12" fill="#2A2A2A"/>
  <rect x="838" y="340" width="170" height="18" rx="9" fill="#2A2A2A"/>
  <rect x="838" y="386" width="292" height="46" rx="12" fill="#141414" stroke="#2A2A2A"/>
  <rect x="860" y="402" width="180" height="12" rx="6" fill="#FF2BD6"/>
  <rect x="838" y="446" width="292" height="46" rx="12" fill="#141414" stroke="#2A2A2A"/>
  <rect x="860" y="462" width="220" height="12" rx="6" fill="#FF77E9"/>
  <rect x="838" y="506" width="292" height="46" rx="12" fill="#141414" stroke="#2A2A2A"/>
  <rect x="860" y="522" width="205" height="12" rx="6" fill="#FF2BD6"/>
  <rect x="838" y="566" width="292" height="70" rx="12" fill="#141414" stroke="#2A2A2A"/>
  <rect x="860" y="592" width="250" height="12" rx="6" fill="#2A2A2A"/>
</svg>
